<svg width="201" height="201" viewBox="0 0 201 201" fill="none" xmlns="http://www.w3.org/2000/svg">
<circle cx="101" cy="102" r="71" fill="white"/>
<path d="M11.191 85.43C14.841 84.92 18.361 84.31 21.911 83.98C23.491 83.83 24.161 83.21 24.301 81.74C24.3395 81.4926 24.4172 81.253 24.531 81.03C25.741 78.32 25.031 76.48 22.431 74.87C19.991 73.36 16.641 71.62 16.021 69.34C15.441 67.23 17.911 64.26 19.081 61.69C21.921 55.52 21.931 55.52 28.571 57.05C29.1474 57.1283 29.7161 57.2554 30.271 57.43C33.171 58.7 35.041 57.93 36.701 55.12C37.761 53.31 37.861 52.19 36.701 50.55C35.076 48.318 33.6026 45.9794 32.291 43.55C32.1323 43.1522 32.0713 42.7221 32.113 42.2958C32.1548 41.8695 32.2981 41.4595 32.531 41.1C35.621 37.83 38.861 34.7 42.281 31.29C45.161 33.13 48.151 34.91 51.001 36.88C51.5062 37.3582 52.1754 37.6248 52.871 37.6248C53.5666 37.6248 54.2358 37.3582 54.741 36.88C58.331 34.19 58.381 34.28 57.391 29.88C56.911 27.76 56.321 25.66 56.051 23.52C56.034 23.0899 56.1205 22.6619 56.3032 22.2721C56.4859 21.8823 56.7595 21.5421 57.101 21.28C60.741 19.42 64.4443 17.6967 68.211 16.11C68.6283 16.0142 69.0626 16.0205 69.477 16.1284C69.8913 16.2364 70.2735 16.4427 70.591 16.73C72.591 19.01 74.351 21.42 76.111 23.85C76.951 25.02 77.791 25.57 79.241 24.91C80.0894 24.5603 80.9806 24.3249 81.891 24.21C82.18 24.1972 82.4636 24.1274 82.7257 24.0049C82.9877 23.8823 83.223 23.7092 83.418 23.4956C83.6131 23.2819 83.7641 23.0319 83.8624 22.7598C83.9607 22.4878 84.0044 22.199 83.991 21.91C84.291 18.91 84.671 15.91 85.221 12.99C85.3346 12.5745 85.5452 12.192 85.8356 11.8738C86.1259 11.5557 86.4876 11.311 86.891 11.16C91.111 10.62 95.3443 10.2333 99.591 10C100.161 10 101.081 10.9 101.331 11.57C102.331 14.39 103.231 17.27 104.041 20.16C104.135 20.7329 104.435 21.2518 104.884 21.6198C105.333 21.9879 105.901 22.1799 106.481 22.16C111.171 22.6 111.141 22.65 113.291 18.56C114.531 16.21 115.291 12.77 117.291 11.88C119.291 10.99 122.291 12.68 124.861 13.35C127.181 13.97 130.361 14.09 131.491 15.64C132.621 17.19 131.731 20.27 131.721 22.64C131.721 22.89 131.721 23.14 131.721 23.39C131.451 28.14 132.041 29.03 136.671 30.25C137.051 30.2754 137.433 30.2229 137.792 30.0957C138.152 29.9684 138.481 29.7691 138.761 29.51C141.091 27.51 143.281 25.29 145.631 23.3C145.949 23.0627 146.319 22.9044 146.71 22.8383C147.101 22.7722 147.503 22.8002 147.881 22.92C151.761 25.49 155.541 28.22 159.501 31C158.111 34.34 156.841 37.59 155.391 40.76C155.046 41.3151 154.927 41.9816 155.059 42.6217C155.191 43.2619 155.564 43.8269 156.101 44.2C159.421 47.32 159.371 47.38 163.591 45.63C165.511 44.83 167.491 44.14 169.361 43.22C170.721 42.55 171.431 42.95 172.211 44.11C174.398 47.37 176.644 50.5833 178.951 53.75C179.142 53.9346 179.29 54.1591 179.384 54.4075C179.478 54.656 179.516 54.9221 179.495 55.1869C179.473 55.4517 179.394 55.7085 179.262 55.939C179.13 56.1695 178.949 56.3679 178.731 56.52C176.801 58.52 175.071 60.64 173.101 62.52C171.721 63.87 171.101 65.1 172.411 66.8C172.794 67.3498 173.079 67.9623 173.251 68.61C173.711 70.19 174.741 70.53 176.251 70.42C179.161 70.19 182.091 70.24 185.001 70.03C185.26 69.9653 185.529 69.9576 185.791 70.0073C186.053 70.0571 186.301 70.1631 186.518 70.3182C186.734 70.4732 186.915 70.6735 187.047 70.9052C187.179 71.1368 187.259 71.3944 187.281 71.66C188.241 75.46 189.264 79.2433 190.351 83.01C190.473 83.2676 190.538 83.5483 190.543 83.8333C190.547 84.1182 190.491 84.4008 190.377 84.6622C190.263 84.9235 190.095 85.1576 189.884 85.3486C189.672 85.5397 189.422 85.6834 189.151 85.77C186.441 87.04 183.851 88.58 181.151 89.84C179.751 90.49 179.651 91.33 179.601 92.75C179.451 96.5 181.141 98.32 184.711 98.84C186.016 99.114 187.296 99.4918 188.541 99.97C192.211 101.14 192.231 101.14 191.911 105.09C191.661 108.24 191.201 111.39 191.081 114.56C191.021 116.24 190.201 116.67 188.821 116.84C185.931 117.19 183.021 117.46 180.151 118.01C179.661 118.113 179.202 118.328 178.81 118.639C178.418 118.95 178.103 119.347 177.891 119.8C176.391 124.56 176.451 124.59 180.401 127.67C182.401 129.2 184.401 130.67 186.511 132.36C184.511 136.73 182.511 141.05 180.401 145.27C180.151 145.76 178.861 146.04 178.141 145.91C175.361 145.41 172.591 144.79 169.851 144.06C169.212 143.785 168.492 143.766 167.839 144.006C167.186 144.246 166.65 144.727 166.341 145.35C163.931 149.07 163.871 149 166.191 152.78C167.611 155.1 170.191 157.59 169.961 159.78C169.731 161.97 166.621 163.64 164.761 165.56L159.761 170.68C156.641 168.68 153.651 166.89 150.761 164.93C150.287 164.481 149.659 164.23 149.006 164.23C148.353 164.23 147.725 164.481 147.251 164.93C143.551 167.72 143.511 167.65 144.531 172.12C144.791 173.26 145.041 174.4 145.291 175.54C146.291 180.01 146.291 180.02 142.011 182L132.291 186.51C130.111 183.69 127.911 180.98 125.881 178.15C125.563 177.531 125.018 177.06 124.359 176.836C123.7 176.612 122.98 176.653 122.351 176.95C118.181 178.26 118.151 178.15 117.621 182.45C117.361 184.51 116.951 186.57 116.811 188.65C116.711 190.17 116.141 190.86 114.581 190.97C110.581 191.25 106.581 191.72 102.581 191.91C102.15 191.837 101.742 191.66 101.394 191.396C101.046 191.131 100.767 190.786 100.581 190.39C99.521 187.58 98.581 184.7 97.821 181.81C97.7273 181.242 97.4319 180.728 96.9892 180.36C96.5465 179.993 95.9861 179.797 95.411 179.81C90.701 179.32 90.731 179.27 88.571 183.37C87.331 185.72 86.511 189.15 84.571 190.03C82.631 190.91 79.571 189.24 77.011 188.56C74.691 187.95 71.521 187.82 70.381 186.27C69.241 184.72 70.141 181.64 70.151 179.27C70.151 179.02 70.151 178.77 70.151 178.52C70.371 173.98 69.521 172.75 65.151 171.72C64.7653 171.706 64.3807 171.77 64.0201 171.908C63.6594 172.045 63.3299 172.253 63.051 172.52C60.8443 174.433 58.691 176.407 56.591 178.44C55.591 179.44 54.741 179.72 53.431 178.74C50.301 176.38 47.071 174.16 43.811 171.98C43.5686 171.874 43.3521 171.717 43.1766 171.52C43.001 171.322 42.8706 171.089 42.7945 170.835C42.7184 170.582 42.6983 170.316 42.7357 170.054C42.7731 169.792 42.867 169.542 43.011 169.32C44.241 166.58 45.281 163.75 46.541 161.03C46.8669 160.506 46.9791 159.876 46.8544 159.271C46.7298 158.667 46.3777 158.133 45.871 157.78C42.511 154.6 42.561 154.56 38.151 156.38C36.3083 157.249 34.4225 158.023 32.501 158.7C32.0772 158.784 31.6396 158.766 31.2241 158.648C30.8087 158.529 30.4272 158.314 30.111 158.02C27.421 154.4 24.891 150.7 22.151 146.7C24.511 144.12 26.791 141.5 29.231 139.04C30.441 137.83 30.741 136.79 29.731 135.37C29.2943 134.76 28.9568 134.085 28.731 133.37C28.6708 133.046 28.5455 132.738 28.3627 132.465C28.1799 132.191 27.9434 131.957 27.6675 131.778C27.3916 131.598 27.0822 131.477 26.7579 131.42C26.4336 131.364 26.1012 131.374 25.781 131.45C22.881 131.7 19.951 131.69 17.041 131.91C16.7819 131.976 16.5116 131.985 16.2486 131.937C15.9856 131.889 15.7362 131.784 15.5176 131.63C15.299 131.476 15.1164 131.277 14.9823 131.045C14.8482 130.814 14.7659 130.556 14.741 130.29C13.761 126.41 12.7143 122.547 11.601 118.7C11.488 118.459 11.4291 118.196 11.4283 117.93C11.4274 117.663 11.4847 117.4 11.5961 117.158C11.7075 116.916 11.8704 116.702 12.0733 116.529C12.2762 116.357 12.5143 116.231 12.771 116.16C15.401 114.9 17.941 113.46 20.571 112.16C21.931 111.5 22.181 110.68 22.331 109.11C22.721 104.95 20.581 103.52 17.051 102.95C15.9953 102.69 14.9594 102.356 13.951 101.95C9.82097 100.66 9.79097 100.66 10.131 96.46C10.451 92.9 10.831 89.26 11.191 85.43ZM171.721 101.82C171.621 62.7 139.941 30.92 101.091 30.97C91.7642 30.9686 82.5289 32.8093 73.9153 36.3863C65.3017 39.9634 57.4794 45.2064 50.8973 51.8145C44.3153 58.4226 39.1032 66.2655 35.5601 74.8931C32.017 83.5208 30.2128 92.7633 30.251 102.09C30.341 141.09 62.251 172.61 101.481 172.5C140.101 172.4 171.811 140.48 171.721 101.82Z" fill="black"/>
<path d="M54.251 124.57V119.57L58.881 119.35V80.62L56.691 80.2C56.691 79.46 56.601 78.66 56.531 77.86C56.411 76.52 56.881 75.78 58.361 75.94C59.0272 75.975 59.6948 75.975 60.361 75.94H145.271V80.12L143.051 80.61V119.33L147.601 119.57V124.57H54.251ZM92.361 80.57V119.23H109.591V80.57H92.361ZM65.181 80.57V119.29H72.531V80.57H65.181ZM137.181 119.31C135.321 106.31 136.781 93.49 137.271 80.59H129.401V119.31H137.181ZM86.101 119.31V80.61H78.241C78.921 93.61 80.111 106.36 78.411 119.29L86.101 119.31ZM115.791 119.31H123.181V80.6H115.791V119.31Z" fill="black"/>
<path d="M47.691 77.94L45.101 71.55C50.831 69.19 56.361 66.9 61.901 64.63C74.251 59.63 86.601 54.56 98.981 49.63C100.093 49.1717 101.33 49.1117 102.481 49.46C120.041 56.52 137.571 63.64 155.071 70.82C155.601 71.04 156.071 71.33 156.801 71.68L154.271 77.95C153.181 77.55 152.271 77.24 151.371 76.88C135.311 70.36 119.258 63.82 103.211 57.26C102.509 56.9362 101.744 56.7685 100.971 56.7685C100.198 56.7685 99.4334 56.9362 98.731 57.26C82.6243 63.8733 66.4943 70.44 50.341 76.96C49.571 77.25 48.791 77.53 47.691 77.94Z" fill="black"/>
<path d="M112.211 140.48C111.671 137.08 111.671 137.07 114.641 137.06H153.121C153.781 137.06 154.431 137.13 155.281 137.17V140.47L112.211 140.48Z" fill="black"/>
<path d="M46.611 140.63V137.22C47.481 137.16 48.211 137.07 48.941 137.07C61.841 137.07 74.751 137.07 87.661 137.07C88.451 137.07 89.751 137.59 89.931 138.15C90.391 139.52 90.091 140.75 88.041 140.62C85.991 140.49 83.721 140.62 81.551 140.62H46.611V140.63Z" fill="black"/>
<path d="M112.261 132.07H152.261V135.41C151.401 135.41 150.591 135.53 149.781 135.53H114.581C111.681 135.53 111.581 135.38 112.261 132.07Z" fill="black"/>
<path d="M49.661 135.32V132.13H89.891V135.32H49.661Z" fill="black"/>
<path d="M89.891 127.14V130.29H51.891L51.721 127.14H89.891Z" fill="black"/>
<path d="M150.161 127.09V130.32C149.161 130.37 148.291 130.45 147.411 130.45H114.641C111.701 130.45 111.641 130.45 112.161 127.08L150.161 127.09Z" fill="black"/>
<path d="M110.141 127.12V130.27H91.891V127.12H110.141Z" fill="black"/>
<path d="M91.791 140.4V137.26H110.111V140.4H91.791Z" fill="black"/>
<path d="M110.141 132.14V135.35H91.891V132.14H110.141Z" fill="black"/>
<path d="M161.831 84.8H143.831L143.461 81.99C149.541 81.99 155.271 81.92 161.001 82.08C161.581 82.08 162.131 83.43 162.691 84.16L161.831 84.8Z" fill="black"/>
<path d="M58.441 82.16L58.211 84.78H39.831L39.661 82.16H58.441Z" fill="black"/>
<path d="M143.951 85.5C149.181 85.5 154.241 85.5 159.291 85.57C159.771 85.57 160.241 86.51 160.721 87.02C160.191 87.47 159.721 88.31 159.141 88.32C154.581 88.43 150.001 88.37 145.431 88.4C143.441 88.41 143.651 87.18 143.951 85.5Z" fill="black"/>
<path d="M57.941 85.5C58.551 87.65 58.041 88.5 56.031 88.42C51.791 88.32 47.551 88.42 43.321 88.33C42.904 88.2852 42.5042 88.1399 42.1558 87.9065C41.8075 87.6731 41.521 87.3586 41.321 86.99C40.921 85.58 42.081 85.49 43.171 85.49C48.061 85.51 52.941 85.5 57.941 85.5Z" fill="black"/>
<path d="M162.271 117.44H143.131C144.131 116.26 144.671 115.01 145.261 115C150.831 114.85 156.401 114.91 162.151 114.91L162.271 117.44Z" fill="black"/>
<path d="M57.721 115.05L58.211 117.4H39.811V115.05H57.721Z" fill="black"/>
<path d="M144.361 113.95C144.181 112.51 143.941 111.33 145.821 111.34C150.641 111.34 155.471 111.34 160.511 111.34V113.94L144.361 113.95Z" fill="black"/>
<path d="M57.571 114.09C52.491 114.09 47.571 114.09 42.691 114.02C42.191 114.02 41.691 113.09 41.241 112.59C41.711 112.18 42.181 111.42 42.671 111.41C47.171 111.31 51.671 111.41 56.171 111.34C58.061 111.33 57.781 112.53 57.571 114.09Z" fill="black"/>
<path d="M92.361 80.57H109.591V119.23H92.361V80.57ZM109.001 82.14H93.001C92.401 84.3 93.161 84.98 95.191 84.92C99.0977 84.8067 103.011 84.8067 106.931 84.92C108.891 84.98 109.451 84.16 109.001 82.14ZM93.241 88.2H108.731V85.7H93.241V88.2ZM108.621 117.5C108.971 115.69 108.621 114.81 106.721 114.87C102.651 114.98 98.581 114.87 94.521 114.93C94.1317 114.975 93.7491 115.066 93.381 115.2V117.5H108.621ZM108.221 111.5H93.741V113.9H108.371L108.221 111.5Z" fill="white"/>
<path d="M65.181 80.57H72.531V119.29H65.181V80.57ZM65.731 84.88C67.3975 84.9667 69.0681 84.94 70.731 84.8C71.241 84.73 71.731 83.8 71.991 83.19C72.081 82.94 71.311 82.09 70.881 82.05C69.191 81.92 67.471 82 65.741 82L65.731 84.88ZM65.511 85.65C65.841 86.65 66.001 88.1 66.351 88.16C67.9755 88.3999 69.6265 88.3999 71.251 88.16C71.571 88.11 71.671 86.69 71.931 85.7L65.511 85.65ZM71.661 117.47C71.481 114.58 71.211 114.47 66.161 115.13L65.891 117.47H71.661ZM71.721 114C71.231 112.88 71.021 111.62 70.571 111.52C69.2885 111.278 67.9693 111.312 66.701 111.62C66.371 111.7 66.361 113.09 66.181 114H71.721Z" fill="white"/>
<path d="M137.211 119.31H129.431V80.59H137.301C136.811 93.49 135.351 106.28 137.211 119.31ZM136.211 82.14H130.071C129.771 85.14 131.271 85.68 136.211 84.51V82.14ZM130.211 88.14C135.861 88.67 136.681 88.48 135.951 85.67H130.291L130.211 88.14ZM135.701 115.05C130.151 114.58 130.011 114.65 130.511 117.43H135.981C135.961 116.58 135.891 115.87 135.781 115.07L135.701 115.05ZM130.701 113.92H135.411C135.731 111.1 134.911 110.73 130.701 111.71V113.92Z" fill="white"/>
<path d="M86.131 119.29H78.411C80.111 106.36 78.921 93.58 78.241 80.61H86.131V119.29ZM78.831 82.1C79.281 83.27 79.511 84.64 79.831 84.68C81.6129 84.8567 83.4098 84.813 85.181 84.55C85.441 84.55 85.511 83.06 85.701 82.1H78.831ZM79.711 88.29H85.231V85.7H79.311L79.711 88.29ZM79.711 117.43H85.121C85.191 114.64 84.221 114.27 79.711 115.27V117.43ZM85.011 113.97L84.711 111.46H80.031L79.891 113.97H85.011Z" fill="white"/>
<path d="M115.821 119.24V80.6H123.211V119.24H115.821ZM116.111 82.13C116.371 83.13 116.491 84.59 116.801 84.63C118.587 84.8549 120.395 84.8549 122.181 84.63C122.511 84.63 122.671 83.15 122.981 82.11L116.111 82.13ZM116.711 88.23H122.361L122.511 85.65H116.511L116.711 88.23ZM122.201 115.09C116.661 114.55 116.441 114.66 117.041 117.46H122.301L122.201 115.09ZM117.101 111.58V113.91H121.941C122.001 111.07 121.821 110.98 117.101 111.58Z" fill="white"/>
<path d="M109.001 82.14C109.451 84.14 108.921 84.98 106.921 84.92C103.014 84.8067 99.101 84.8067 95.181 84.92C93.181 84.98 92.391 84.3 92.991 82.14H109.001Z" fill="black"/>
<path d="M93.241 88.2V85.7H108.731V88.24L93.241 88.2Z" fill="black"/>
<path d="M108.621 117.5H93.381V115.2C93.7491 115.066 94.1317 114.975 94.521 114.93C98.581 114.93 102.651 114.93 106.721 114.87C108.661 114.81 108.971 115.7 108.621 117.5Z" fill="black"/>
<path d="M108.221 111.49L108.371 113.89H93.741V111.49H108.221Z" fill="black"/>
<path d="M65.731 84.88V82C67.461 82 69.181 81.92 70.871 82.05C71.301 82.05 72.071 82.94 71.981 83.19C71.771 83.82 71.231 84.73 70.721 84.8C69.0614 84.9395 67.3942 84.9662 65.731 84.88Z" fill="black"/>
<path d="M65.511 85.7H71.891C71.631 86.7 71.531 88.11 71.211 88.16C69.5865 88.3999 67.9355 88.3999 66.311 88.16C66.001 88.1 65.891 86.7 65.511 85.7Z" fill="black"/>
<path d="M71.661 117.47H65.891L66.151 115.13C71.211 114.47 71.481 114.58 71.661 117.47Z" fill="black"/>
<path d="M71.721 114H66.181C66.361 113.09 66.371 111.7 66.701 111.62C67.9693 111.312 69.2885 111.278 70.571 111.52C71.021 111.62 71.231 112.88 71.721 114Z" fill="black"/>
<path d="M136.251 82.14V84.51C131.311 85.68 129.811 85.13 130.111 82.14H136.251Z" fill="black"/>
<path d="M130.291 88.16V85.7H136.031C136.761 88.5 135.941 88.7 130.291 88.16Z" fill="black"/>
<path d="M135.781 115.07C135.871 115.87 135.961 116.58 136.061 117.45H130.591C130.091 114.7 130.231 114.6 135.781 115.07Z" fill="black"/>
<path d="M130.781 113.94V111.7C134.991 110.7 135.781 111.09 135.491 113.91L130.781 113.94Z" fill="black"/>
<path d="M78.831 82.1H85.751C85.561 83.1 85.491 84.51 85.231 84.55C83.4639 84.8188 81.6704 84.8692 79.891 84.7C79.511 84.64 79.281 83.27 78.831 82.1Z" fill="black"/>
<path d="M79.711 88.29L79.311 85.69H85.231V88.29H79.711Z" fill="black"/>
<path d="M79.751 117.43V115.27C84.261 114.27 85.231 114.64 85.161 117.43H79.751Z" fill="black"/>
<path d="M85.051 113.97H79.891L80.081 111.46H84.801L85.051 113.97Z" fill="black"/>
<path d="M116.111 82.13H122.981C122.671 83.13 122.511 84.61 122.181 84.65C120.395 84.875 118.587 84.875 116.801 84.65C116.491 84.59 116.371 83.14 116.111 82.13Z" fill="black"/>
<path d="M116.711 88.23L116.481 85.65H122.481L122.331 88.23H116.711Z" fill="black"/>
<path d="M122.201 115.09L122.301 117.46H117.041C116.441 114.7 116.661 114.55 122.201 115.09Z" fill="black"/>
<path d="M117.101 111.58C121.821 110.98 122.001 111.07 121.941 113.91H117.101V111.58Z" fill="black"/>
</svg>
